<svg width="24" height="24" viewBox="0 0 24 24" fill="none" xmlns="http://www.w3.org/2000/svg">
<path d="M19.27 10.337C19.1101 10.3373 18.9569 10.4009 18.8439 10.5139C18.7309 10.6269 18.6673 10.7802 18.667 10.94V20.772H16.929L13.593 13.832C14.069 13.294 14.273 12.547 14.118 11.832C14.0464 11.4786 13.8922 11.1471 13.668 10.8647C13.4438 10.5823 13.1559 10.3569 12.828 10.207V9.395C12.8302 9.2826 12.8101 9.17088 12.7687 9.06634C12.7274 8.9618 12.6656 8.86655 12.5871 8.78613C12.5085 8.70571 12.4147 8.64173 12.3112 8.59793C12.2076 8.55413 12.0964 8.53138 11.984 8.531C11.832 8.53091 11.6828 8.57167 11.552 8.649C11.4214 8.72854 11.3144 8.84144 11.242 8.97608C11.1696 9.11072 11.1344 9.26222 11.14 9.415V10.135C10.6382 10.3172 10.2154 10.6683 9.94409 11.128C9.67279 11.5878 9.56988 12.1277 9.65299 12.655C9.72379 13.1086 9.92976 13.5303 10.244 13.865L7.03399 20.772H4.09399C3.56791 20.7686 3.06446 20.5576 2.69311 20.1849C2.32177 19.8123 2.11256 19.3081 2.11099 18.782V5.017C2.10499 6.119 2.99399 7.017 4.09699 7.023C4.14102 7.0231 4.18505 7.02177 4.22899 7.019H18.974C18.974 7.019 21.509 6.801 21.836 8.559C21.7146 8.57132 21.602 8.62806 21.5199 8.71831C21.4377 8.80856 21.3918 8.92597 21.391 9.048C21.391 9.759 20.812 10.338 20.089 10.338H19.27V10.337ZM17.222 22.537C17.3346 22.7691 17.3505 23.0364 17.2661 23.2802C17.1817 23.5239 17.004 23.7242 16.772 23.837C16.6463 23.8966 16.5091 23.9283 16.37 23.93C16.2616 23.9329 16.1534 23.9177 16.05 23.885C16.026 23.877 16.004 23.864 15.98 23.854C15.8987 23.8205 15.8223 23.7761 15.753 23.722C15.728 23.702 15.703 23.684 15.681 23.662C15.5948 23.5835 15.5237 23.49 15.471 23.386L14.215 20.772L12.657 17.527C12.5946 17.3941 12.4956 17.2817 12.3716 17.2031C12.2477 17.1244 12.1038 17.0828 11.957 17.083H11.955C11.8072 17.0835 11.6624 17.1253 11.5371 17.2038C11.4118 17.2822 11.311 17.3942 11.246 17.527L9.73599 20.772L8.50299 23.418C8.43384 23.5771 8.32336 23.7148 8.18304 23.8168C8.04272 23.9187 7.87766 23.9813 7.70499 23.998C7.64199 24.003 7.58099 23.996 7.51999 23.989C7.48599 23.986 7.45099 23.984 7.41699 23.977C7.36899 23.967 7.32199 23.949 7.27499 23.932C7.24499 23.92 7.21499 23.912 7.18499 23.898C7.13587 23.872 7.08904 23.8419 7.04499 23.808C7.02399 23.793 6.99999 23.781 6.97899 23.764C6.91502 23.7098 6.85823 23.6476 6.80999 23.579C6.71208 23.4357 6.654 23.269 6.6417 23.096C6.6294 22.9229 6.66332 22.7497 6.73999 22.594L7.58599 20.772L10.854 13.741C10.4743 13.461 10.22 13.0429 10.146 12.577C9.99099 11.597 10.659 10.677 11.639 10.521V9.395C11.6364 9.33215 11.6506 9.26975 11.6801 9.21421C11.7096 9.15867 11.7534 9.112 11.807 9.079C11.8606 9.04723 11.9217 9.03046 11.984 9.03046C12.0463 9.03046 12.1074 9.04723 12.161 9.079C12.2144 9.11212 12.258 9.15884 12.2873 9.21438C12.3166 9.26991 12.3307 9.33225 12.328 9.395V10.554L12.341 10.56C12.662 10.6484 12.9522 10.8239 13.1796 11.0671C13.4069 11.3104 13.5625 11.6118 13.629 11.938C13.7003 12.2658 13.6776 12.6071 13.5637 12.9227C13.4498 13.2382 13.2492 13.5153 12.985 13.722L16.374 20.772L17.222 22.537V22.537ZM12.984 12.306C12.9852 12.1614 12.9578 12.0179 12.9035 11.8839C12.8492 11.7499 12.769 11.6278 12.6675 11.5248C12.566 11.4218 12.4451 11.3398 12.3119 11.2836C12.1786 11.2273 12.0356 11.1979 11.891 11.197C11.5969 11.197 11.3145 11.3126 11.105 11.519C10.8999 11.7238 10.7839 12.0012 10.782 12.291C10.7809 12.4355 10.8084 12.5789 10.8628 12.7128C10.9171 12.8467 10.9974 12.9686 11.0989 13.0715C11.2004 13.1744 11.3212 13.2563 11.4543 13.3125C11.5875 13.3687 11.7305 13.3981 11.875 13.399H11.883C12.1737 13.3993 12.4527 13.2845 12.659 13.0796C12.8653 12.8748 12.9821 12.5967 12.984 12.306V12.306ZM11.957 17.583C11.904 17.5826 11.852 17.5969 11.8066 17.6242C11.7613 17.6516 11.7244 17.691 11.7 17.738L10.287 20.772H13.661L12.204 17.739C12.1817 17.6923 12.1467 17.6529 12.103 17.6253C12.0593 17.5977 12.0087 17.5831 11.957 17.583V17.583ZM20.1 10.837H19.27C19.2427 10.837 19.2165 10.8479 19.1972 10.8672C19.1778 10.8865 19.167 10.9127 19.167 10.94V23.85C19.1669 23.8761 19.1768 23.9013 19.1946 23.9205C19.2125 23.9396 19.2369 23.9512 19.263 23.953H20.107C20.5805 23.9511 21.034 23.7617 21.3682 23.4263C21.7024 23.0908 21.89 22.6365 21.89 22.163V9.047C21.89 9.52174 21.7014 9.97703 21.3657 10.3127C21.03 10.6484 20.5747 10.837 20.1 10.837V10.837ZM2.60999 5.017V5.035C2.61339 5.42833 2.77114 5.80458 3.04928 6.08272C3.32741 6.36085 3.70367 6.51861 4.09699 6.522C4.14065 6.52076 4.18432 6.51976 4.22799 6.519H5.35699C5.54413 5.21995 6.11443 4.00622 6.99499 3.033H4.09899C3.65865 3.03533 3.23148 3.1835 2.88428 3.45435C2.53708 3.7252 2.28941 4.10346 2.17999 4.53C2.42199 4.566 2.60999 4.765 2.60999 5.016V5.017ZM8.94799 2.118L7.90999 0.328C7.89096 0.294827 7.88094 0.257247 7.88094 0.219C7.88094 0.180753 7.89096 0.143173 7.90999 0.11C7.93021 0.0781578 7.95772 0.0515783 7.99023 0.0324529C8.02274 0.0133276 8.05934 0.00220427 8.09699 0C8.13503 0.00051398 8.17228 0.010928 8.20507 0.0302164C8.23786 0.0495048 8.26506 0.0770021 8.28399 0.11L9.33399 1.925C10.1701 1.54945 11.0764 1.35529 11.993 1.35529C12.9096 1.35529 13.8158 1.54945 14.652 1.925L15.696 0.11C15.7291 0.0693758 15.7756 0.0419575 15.8272 0.0327207C15.8788 0.0234839 15.9319 0.0330406 15.9771 0.0596567C16.0222 0.0862727 16.0563 0.128184 16.0731 0.177786C16.09 0.227388 16.0885 0.281392 16.069 0.33L15.039 2.12C15.8565 2.56909 16.5606 3.19906 17.0976 3.9618C17.6345 4.72454 17.99 5.59989 18.137 6.521L5.84999 6.52C5.99702 5.59916 6.35246 4.72407 6.88919 3.96152C7.42592 3.19897 8.12976 2.56911 8.94699 2.12L8.94799 2.118ZM14.325 4.738C14.3265 4.80564 14.3414 4.8723 14.3687 4.93419C14.3961 4.99608 14.4353 5.05198 14.4843 5.09869C14.5332 5.1454 14.5909 5.18201 14.654 5.20643C14.7171 5.23085 14.7844 5.24259 14.852 5.241C14.9197 5.24113 14.9868 5.22791 15.0494 5.20209C15.112 5.17626 15.1689 5.13835 15.2168 5.09051C15.2647 5.04268 15.3028 4.98586 15.3287 4.92331C15.3546 4.86077 15.368 4.79371 15.368 4.726C15.3676 4.62316 15.3369 4.52272 15.2795 4.43734C15.2222 4.35197 15.1409 4.28547 15.0458 4.24622C14.9507 4.20698 14.8462 4.19675 14.7453 4.21682C14.6445 4.23689 14.5518 4.28636 14.479 4.359C14.4287 4.40842 14.389 4.46765 14.3625 4.53301C14.3361 4.59838 14.3233 4.66849 14.325 4.739V4.738ZM8.60799 4.732C8.60865 4.79963 8.62261 4.86647 8.6491 4.92871C8.67559 4.99094 8.71407 5.04734 8.76236 5.0947C8.81065 5.14206 8.86779 5.17944 8.93053 5.20472C8.99326 5.22999 9.06036 5.24266 9.12799 5.242C9.19602 5.24295 9.26354 5.23026 9.32658 5.20466C9.38962 5.17907 9.44688 5.1411 9.49499 5.093C9.55034 5.04656 9.59542 4.98912 9.62738 4.92432C9.65933 4.85953 9.67746 4.78879 9.68061 4.71661C9.68377 4.64444 9.67187 4.57239 9.64569 4.50506C9.6195 4.43772 9.5796 4.37657 9.52851 4.32548C9.47742 4.27439 9.41627 4.23449 9.34894 4.20831C9.2816 4.18212 9.20956 4.17023 9.13738 4.17338C9.0652 4.17653 8.99446 4.19466 8.92967 4.22662C8.86487 4.25857 8.80743 4.30365 8.76099 4.359C8.71171 4.40769 8.67276 4.46582 8.64648 4.52991C8.62019 4.594 8.6071 4.66273 8.60799 4.732Z" fill="white"/>
</svg>
