<svg width="24" height="24" viewBox="0 0 24 24" fill="none" xmlns="http://www.w3.org/2000/svg">
<path d="M17.6 9.48L19.44 6.3C19.6 5.99 19.48 5.61 19.18 5.45C19.0391 5.37657 18.8759 5.35843 18.7224 5.39913C18.5688 5.43983 18.436 5.53644 18.35 5.67L16.47 8.91C15.0558 8.31113 13.5357 8.00254 12 8.00254C10.4643 8.00254 8.94417 8.31113 7.53 8.91L5.65 5.67C5.55909 5.53051 5.41763 5.43172 5.25536 5.39442C5.0931 5.35712 4.92269 5.38421 4.78 5.47C4.5 5.65 4.41 6.01 4.56 6.3L6.4 9.48C4.87336 10.3521 3.5832 11.5844 2.64198 13.0694C1.70076 14.5545 1.13706 16.2472 1 18H23C22.8629 16.2472 22.2992 14.5545 21.358 13.0694C20.4168 11.5844 19.1266 10.3521 17.6 9.48V9.48ZM7 15.25C6.66848 15.25 6.35054 15.1183 6.11612 14.8839C5.8817 14.6495 5.75 14.3315 5.75 14C5.75 13.6685 5.8817 13.3505 6.11612 13.1161C6.35054 12.8817 6.66848 12.75 7 12.75C7.33152 12.75 7.64946 12.8817 7.88388 13.1161C8.1183 13.3505 8.25 13.6685 8.25 14C8.25 14.3315 8.1183 14.6495 7.88388 14.8839C7.64946 15.1183 7.33152 15.25 7 15.25V15.25ZM17 15.25C16.6685 15.25 16.3505 15.1183 16.1161 14.8839C15.8817 14.6495 15.75 14.3315 15.75 14C15.75 13.6685 15.8817 13.3505 16.1161 13.1161C16.3505 12.8817 16.6685 12.75 17 12.75C17.3315 12.75 17.6495 12.8817 17.8839 13.1161C18.1183 13.3505 18.25 13.6685 18.25 14C18.25 14.3315 18.1183 14.6495 17.8839 14.8839C17.6495 15.1183 17.3315 15.25 17 15.25V15.25Z" fill="white"/>
</svg>
