<svg width="65" height="65" viewBox="0 0 65 65" fill="none" xmlns="http://www.w3.org/2000/svg">
<path d="M28.4375 44.5778C27.0292 44.4216 25.6439 44.1012 24.31 43.6231C24.3506 42.6644 24.375 41.665 24.375 40.625V39.256C25.6344 39.8572 27.0034 40.2757 28.4375 40.4828V30.4688C28.4375 28.8526 29.0795 27.3026 30.2223 26.1598C31.3651 25.017 32.9151 24.375 34.5312 24.375H44.5453C44.2213 22.1239 43.3621 19.9834 42.0397 18.1331C40.7174 16.2828 38.9704 14.7766 36.9456 13.7411C34.9207 12.7056 32.677 12.1709 30.4027 12.1819C28.1285 12.1929 25.8901 12.7493 23.8753 13.8044C23.554 12.4757 23.0247 11.2061 22.3072 10.0425C24.9408 8.728 27.8528 8.06883 30.7958 8.12105C33.7388 8.17327 36.6256 8.93533 39.2109 10.3425C41.7962 11.7496 44.0035 13.7601 45.6452 16.2032C47.2869 18.6463 48.3144 21.4497 48.6403 24.375H54.8438C56.4599 24.375 58.0099 25.017 59.1527 26.1598C60.2955 27.3026 60.9375 28.8526 60.9375 30.4688V50.7813C60.9375 52.3974 60.2955 53.9474 59.1527 55.0902C58.0099 56.233 56.4599 56.875 54.8438 56.875H34.5312C32.9151 56.875 31.3651 56.233 30.2223 55.0902C29.0795 53.9474 28.4375 52.3974 28.4375 50.7813V44.5778ZM48.6403 28.4375C48.1787 32.5593 46.3299 36.4018 43.3971 39.3346C40.4643 42.2674 36.6218 44.1162 32.5 44.5778V50.7813C32.5 51.32 32.714 51.8367 33.0949 52.2176C33.4759 52.5985 33.9925 52.8125 34.5312 52.8125H54.8438C55.3825 52.8125 55.8991 52.5985 56.2801 52.2176C56.661 51.8367 56.875 51.32 56.875 50.7813V30.4688C56.875 29.9301 56.661 29.4134 56.2801 29.0325C55.8991 28.6515 55.3825 28.4375 54.8438 28.4375H48.6403ZM44.5453 28.4375H34.5312C33.9925 28.4375 33.4759 28.6515 33.0949 29.0325C32.714 29.4134 32.5 29.9301 32.5 30.4688V40.4828C35.5387 40.0436 38.3537 38.6332 40.5247 36.4622C42.6957 34.2912 44.1061 31.4762 44.5453 28.4375V28.4375ZM19.4797 30.7166C19.0531 29.1485 18.3625 27.5763 17.1763 26.3697C19.0938 24.5538 20.3125 21.6613 20.3125 18.2813C20.3125 15.4497 19.7397 13.5038 18.7038 11.9478C18.2441 11.2786 17.7128 10.6615 17.1194 10.1075C16.8919 9.88794 16.6617 9.67126 16.4288 9.45753C16.1809 9.22596 15.9534 9.01471 15.6569 8.71815C15.0475 8.10877 14.9784 7.62127 14.9784 7.36534C14.9791 7.22308 15.0024 7.08183 15.0475 6.9469C15.2332 6.54522 15.2827 6.09388 15.1884 5.6615C15.0941 5.22913 14.8612 4.83938 14.525 4.55153C14.1889 4.26368 13.768 4.09347 13.3262 4.0668C12.8845 4.04013 12.4461 4.15846 12.0778 4.40377L12.0697 4.40784L12.0575 4.41596L12.0209 4.44034L11.8991 4.52159C11.2897 4.95624 10.7026 5.42131 10.14 5.91502C9.12438 6.81284 7.8 8.14128 6.86156 9.72565C6.04236 11.0392 5.38489 12.4469 4.90344 13.9182C4.41594 15.3766 4.0625 16.9569 4.0625 18.2813C4.0625 21.6613 5.28125 24.5497 7.19875 26.3738C6.0125 27.5763 5.32188 29.1485 4.89531 30.7206C4.0625 33.7756 4.0625 37.5538 4.0625 40.4747V40.625C4.0625 48.9857 5.62656 53.95 7.39781 56.9035C8.2875 58.3822 9.21375 59.3369 9.98969 59.9381C10.4031 60.2606 10.8531 60.5334 11.3303 60.7507C11.6063 60.8514 11.8946 60.9143 12.1875 60.9375C12.5287 60.9375 13.0447 60.7507 13.0447 60.7507C13.5219 60.5334 13.9719 60.2606 14.3853 59.9381C15.1572 59.3369 16.0916 58.3822 16.9772 56.9035C18.7484 53.9541 20.3125 48.9857 20.3125 40.625V40.4788C20.3125 37.5538 20.3125 33.7797 19.4797 30.7166ZM10.1034 29.2135C10.5625 28.7503 11.1759 28.4375 12.1875 28.4375C13.2031 28.4375 13.8125 28.7544 14.2716 29.2094C14.7834 29.7253 15.2262 30.5622 15.5594 31.785C16.2337 34.2672 16.25 37.5253 16.25 40.625C16.25 48.5144 14.7672 52.6907 13.4916 54.8153C13.0041 55.6278 12.545 56.1519 12.1875 56.481C11.6767 55.9898 11.2377 55.4291 10.8834 54.8153C9.60781 52.6866 8.125 48.5144 8.125 40.625C8.125 37.5253 8.14125 34.2672 8.81563 31.785C9.14875 30.5663 9.59156 29.7253 10.1034 29.2094V29.2135ZM12.1875 24.375C10.6234 24.375 8.125 22.6363 8.125 18.2813C8.125 17.5785 8.33625 16.4653 8.75875 15.206C9.14376 14.017 9.67458 12.8803 10.3391 11.8219C10.6925 11.2247 11.1516 10.6438 11.6472 10.1116C11.9275 10.6072 12.2972 11.1069 12.7847 11.5944C13.0813 11.891 13.4672 12.2485 13.7962 12.5572L14.3 13.0285C14.7266 13.4428 15.0556 13.8044 15.3197 14.2066C15.8072 14.9338 16.25 16.0347 16.25 18.2813C16.25 22.6363 13.7516 24.375 12.1875 24.375Z" fill="white"/>
</svg>
