<svg width="32" height="32" viewBox="0 0 32 32" fill="none" xmlns="http://www.w3.org/2000/svg">
<g clip-path="url(#clip0_87_17)">
<path d="M5.188 20.896L8.339 0.615038C8.443 -0.072962 9.37 -0.228962 9.693 0.386038L13.084 6.74504L5.188 20.896ZM27.578 25.818L24.578 7.15104C24.5553 7.0206 24.4972 6.89888 24.4102 6.79908C24.3232 6.69929 24.2105 6.62523 24.0844 6.58494C23.9583 6.54465 23.8235 6.53966 23.6947 6.57053C23.566 6.6014 23.4481 6.66694 23.354 6.76004L4.422 25.817L14.896 31.723C15.552 32.093 16.354 32.093 17.011 31.723L27.578 25.818ZM19.068 9.53104L16.641 4.88504C16.5795 4.76841 16.4874 4.67078 16.3745 4.60268C16.2617 4.53458 16.1323 4.49858 16.0005 4.49858C15.8687 4.49858 15.7393 4.53458 15.6265 4.60268C15.5136 4.67078 15.4215 4.76841 15.36 4.88504L4.709 23.979L19.068 9.53104Z" fill="white"/>
</g>
<defs>
<clipPath id="clip0_87_17">
<rect width="32" height="32" fill="white"/>
</clipPath>
</defs>
</svg>
