<svg width="16" height="16" viewBox="0 0 16 16" fill="none" xmlns="http://www.w3.org/2000/svg">
<g clip-path="url(#clip0_87_11)">
<path fill-rule="evenodd" clip-rule="evenodd" d="M14 4.5V11H13V4.5H11C10.6022 4.5 10.2206 4.34196 9.93933 4.06066C9.65802 3.77936 9.49999 3.39782 9.49999 3V1H3.99999C3.73477 1 3.48042 1.10536 3.29288 1.29289C3.10535 1.48043 2.99999 1.73478 2.99999 2V11H1.99999V2C1.99999 1.46957 2.2107 0.960859 2.58578 0.585786C2.96085 0.210714 3.46956 0 3.99999 0L9.49999 0L14 4.5ZM4.15099 15.29C4.08463 15.1492 4.0469 14.9965 4.03999 14.841H4.80399C4.81788 14.9191 4.84768 14.9935 4.89155 15.0595C4.93542 15.1256 4.99242 15.1819 5.05899 15.225C5.12899 15.274 5.21299 15.312 5.30899 15.339C5.40399 15.367 5.50999 15.38 5.62799 15.38C5.79199 15.38 5.92899 15.357 6.04099 15.31C6.14297 15.2719 6.2316 15.2048 6.29599 15.117C6.35279 15.0311 6.38209 14.93 6.37999 14.827C6.38294 14.7644 6.37064 14.7021 6.34417 14.6453C6.31769 14.5885 6.27782 14.539 6.22799 14.501C6.12699 14.421 5.97199 14.357 5.76499 14.308L5.14699 14.165C4.95651 14.1247 4.77425 14.0523 4.60799 13.951C4.46102 13.861 4.33978 13.7346 4.25599 13.584C4.17093 13.4227 4.12858 13.2423 4.13299 13.06C4.13299 12.816 4.19699 12.603 4.32299 12.421C4.45099 12.24 4.62699 12.099 4.85099 11.999C5.07599 11.899 5.33499 11.85 5.62799 11.85C5.93199 11.85 6.19199 11.9 6.40699 12.002C6.62399 12.104 6.79099 12.241 6.90699 12.412C7.02699 12.582 7.09299 12.771 7.10699 12.978H6.35699C6.33987 12.8831 6.29854 12.7942 6.23699 12.72C6.17125 12.6402 6.08672 12.578 5.99099 12.539C5.87363 12.4912 5.74768 12.468 5.62099 12.471C5.40499 12.471 5.23399 12.521 5.10899 12.623C5.05019 12.668 5.00281 12.7262 4.97068 12.7929C4.93854 12.8596 4.92254 12.933 4.92399 13.007C4.92399 13.128 4.97199 13.227 5.06799 13.307C5.18746 13.3955 5.32569 13.4554 5.47199 13.482L6.09299 13.625C6.30999 13.675 6.49899 13.745 6.65899 13.836C6.81329 13.9203 6.94264 14.0438 7.03399 14.194C7.12399 14.342 7.16899 14.529 7.16899 14.754C7.16899 15.001 7.10599 15.22 6.98099 15.41C6.84787 15.6057 6.66055 15.7582 6.44199 15.849C6.20799 15.954 5.92199 16.007 5.58399 16.007C5.32999 16.007 5.10799 15.977 4.91899 15.917C4.74484 15.8647 4.5825 15.7792 4.44099 15.665C4.3189 15.5619 4.22005 15.4341 4.15099 15.29V15.29ZM1.04699 15.257C0.991812 15.1079 0.964033 14.95 0.96499 14.791H1.72899C1.73108 14.8857 1.75649 14.9785 1.80299 15.061C1.84903 15.1395 1.91567 15.2039 1.9957 15.2473C2.07572 15.2906 2.16608 15.3113 2.25699 15.307C2.44699 15.307 2.58699 15.252 2.67899 15.143C2.76999 15.033 2.81599 14.878 2.81599 14.677V11.932H3.60699V14.657C3.60699 15.097 3.48799 15.431 3.24999 15.662C3.01299 15.892 2.68499 16.007 2.26499 16.007C2.07151 16.0105 1.87903 15.9786 1.69699 15.913C1.54384 15.8545 1.40505 15.7638 1.28999 15.647C1.18336 15.5348 1.10068 15.4021 1.04699 15.257V15.257ZM10.138 13.672V14.194C10.138 14.45 10.099 14.664 10.021 14.835C9.95456 14.9932 9.84244 15.1279 9.69899 15.222C9.55734 15.3075 9.3944 15.3512 9.22899 15.348C9.06361 15.3508 8.90076 15.3072 8.75899 15.222C8.6166 15.1273 8.5053 14.9926 8.43899 14.835C8.35501 14.632 8.31513 14.4135 8.32199 14.194V13.672C8.32199 13.414 8.36099 13.201 8.43899 13.031C8.5053 12.8734 8.6166 12.7387 8.75899 12.644C8.90012 12.557 9.06322 12.5122 9.22899 12.515C9.40599 12.515 9.56199 12.558 9.69899 12.644C9.84244 12.7381 9.95456 12.8728 10.021 13.031C10.099 13.201 10.138 13.414 10.138 13.672ZM10.941 14.191V13.678C10.941 13.301 10.872 12.977 10.736 12.705C10.6073 12.4403 10.4017 12.2207 10.146 12.075C9.89299 11.929 9.58699 11.855 9.22999 11.855C8.87399 11.855 8.56799 11.929 8.30999 12.075C8.05425 12.2194 7.84874 12.4385 7.72099 12.703C7.58399 12.974 7.51599 13.299 7.51599 13.678V14.191C7.51599 14.566 7.58399 14.89 7.72099 15.164C7.85799 15.435 8.05399 15.644 8.30999 15.79C8.56799 15.935 8.87399 16.007 9.22999 16.007C9.58699 16.007 9.89299 15.935 10.147 15.79C10.403 15.644 10.599 15.435 10.736 15.164C10.872 14.89 10.941 14.566 10.941 14.191V14.191ZM12.231 13.256V15.931H11.485V11.932H12.147L13.899 14.592H13.931V11.932H14.681V15.932H14.025L12.264 13.256H12.232H12.231Z" fill="white"/>
</g>
<defs>
<clipPath id="clip0_87_11">
<rect width="16" height="16" fill="white"/>
</clipPath>
</defs>
</svg>
