<svg width="13" height="18" viewBox="0 0 13 18" fill="none" xmlns="http://www.w3.org/2000/svg">
<path fill-rule="evenodd" clip-rule="evenodd" d="M6.5 17.0998L7.07525 17.7351C6.99976 17.8191 6.91005 17.8857 6.81126 17.9312C6.71248 17.9766 6.60656 18 6.49959 18C6.39263 18 6.28671 17.9766 6.18792 17.9312C6.08914 17.8857 5.99943 17.8191 5.92394 17.7351L5.91906 17.7288L5.90525 17.7135L5.85488 17.6568C5.56846 17.33 5.28676 16.9982 5.00988 16.6615C4.3147 15.8177 3.64904 14.9447 3.01438 14.0443C2.28963 13.0093 1.54862 11.8393 0.985562 10.6837C0.434687 9.55066 0 8.32308 0 7.1999C0 3.11485 2.9185 0 6.5 0C10.0815 0 13 3.11485 13 7.1999C13 8.32308 12.5653 9.55066 12.0144 10.6828C11.4514 11.8402 10.7112 13.0093 9.98563 14.0443C9.09787 15.3039 8.14967 16.5099 7.14512 17.6568L7.09475 17.7135L7.08094 17.7288L7.07606 17.7342L6.5 17.0998ZM6.5 9.89986C7.14647 9.89986 7.76645 9.6154 8.22357 9.10906C8.68069 8.60272 8.9375 7.91597 8.9375 7.1999C8.9375 6.48382 8.68069 5.79708 8.22357 5.29074C7.76645 4.78439 7.14647 4.49993 6.5 4.49993C5.85353 4.49993 5.23355 4.78439 4.77643 5.29074C4.31931 5.79708 4.0625 6.48382 4.0625 7.1999C4.0625 7.91597 4.31931 8.60272 4.77643 9.10906C5.23355 9.6154 5.85353 9.89986 6.5 9.89986Z" fill="black"/>
</svg>
