<svg width="58" height="58" viewBox="0 0 58 58" fill="none" xmlns="http://www.w3.org/2000/svg">
<g clip-path="url(#clip0_69_81)">
<path d="M51.6562 7.61248C51.0331 7.20932 50.3204 6.96541 49.5808 6.9022C48.8413 6.839 48.0976 6.95842 47.415 7.24998L25.0487 16.0587C24.5192 16.2742 23.9529 16.385 23.3812 16.385H9.0625C7.86074 16.385 6.7082 16.8624 5.85842 17.7122C5.00865 18.5619 4.53125 19.7145 4.53125 20.9162V21.2787H0V32.1537H4.53125V32.625C4.55965 33.8078 5.04955 34.9326 5.89627 35.759C6.74298 36.5854 7.87934 37.0478 9.0625 37.0475L14.5 48.575C14.8682 49.3513 15.4479 50.0079 16.1724 50.4696C16.897 50.9313 17.7371 51.1792 18.5963 51.185H20.88C22.0755 51.1754 23.2187 50.6938 24.0607 49.8451C24.9026 48.9963 25.375 47.8492 25.375 46.6537V37.4825L47.415 46.2912C47.9571 46.507 48.5353 46.6177 49.1188 46.6175C50.0239 46.6029 50.9054 46.3258 51.6562 45.82C52.2525 45.4174 52.7443 44.8787 53.091 44.2483C53.4377 43.6179 53.6293 42.9141 53.65 42.195V11.3462C53.6467 10.6086 53.4633 9.88294 53.1159 9.23226C52.7684 8.58157 52.2674 8.02555 51.6562 7.61248V7.61248ZM20.8438 20.9162V32.625H9.0625V20.9162H20.8438ZM20.8438 46.6537H18.56L14.1013 37.0475H20.8438V46.6537ZM26.7162 33.1687C26.2858 32.9488 25.8371 32.7668 25.375 32.625V20.6625C25.8326 20.5681 26.2814 20.4347 26.7162 20.2637L49.1188 11.3462V42.0862L26.7162 33.1687ZM53.7587 22.185V31.2475C54.9605 31.2475 56.1131 30.7701 56.9628 29.9203C57.8126 29.0705 58.29 27.918 58.29 26.7162C58.29 25.5145 57.8126 24.3619 56.9628 23.5122C56.1131 22.6624 54.9605 22.185 53.7587 22.185V22.185Z" fill="black"/>
</g>
<defs>
<clipPath id="clip0_69_81">
<rect width="58" height="58" fill="white"/>
</clipPath>
</defs>
</svg>
