<svg width="71" height="71" viewBox="0 0 71 71" fill="none" xmlns="http://www.w3.org/2000/svg">
<path d="M51.4169 24.9565L11.7334 4.36373C10.5668 3.74117 9.30536 3.29078 7.99317 3.02836C6.93142 2.91353 5.86025 3.14961 4.9636 3.69605M51.4169 24.9565L40.4394 35.4988M51.4169 24.9565L64.5076 31.7563C69.1641 34.181 69.1641 36.7463 64.5076 39.1711L51.4169 45.9709L40.4394 35.4286L51.4169 24.8862V24.9565ZM40.4394 35.4988L4.9636 3.69605M40.4394 35.4988L5.00101 67.2489M40.4394 35.4988L51.4169 46.0412L11.8082 66.6339C9.63886 67.7585 6.7215 68.7248 5.00101 67.2489M4.9636 3.69605L40.4955 35.4988L5.00101 67.2489M4.9636 3.69605L4.8701 3.71362C3.67324 4.69757 3 6.71819 3 9.65248V61.3452C3 64.2795 3.69194 66.265 5.00101 67.2489" stroke="white" stroke-width="4.64286" stroke-linecap="round" stroke-linejoin="round"/>
</svg>
