<svg width="84" height="84" viewBox="0 0 84 84" fill="none" xmlns="http://www.w3.org/2000/svg">
<path fill-rule="evenodd" clip-rule="evenodd" d="M25.2 0H63C67.641 0 71.4 3.9606 71.4 8.841V75.159C71.4 80.0394 67.641 84 63 84H25.2C20.559 84 16.8 80.0394 16.8 75.159V8.841C16.8 3.9606 20.559 0 25.2 0ZM29.4 8.4C28.2861 8.4 27.2179 8.8425 26.4302 9.63015C25.6425 10.4178 25.2 11.4861 25.2 12.6V71.4C25.2 72.5139 25.6425 73.5822 26.4302 74.3698C27.2179 75.1575 28.2861 75.6 29.4 75.6H58.8C59.914 75.6 60.9822 75.1575 61.7699 74.3698C62.5575 73.5822 63 72.5139 63 71.4V12.6C63 11.4861 62.5575 10.4178 61.7699 9.63015C60.9822 8.8425 59.914 8.4 58.8 8.4H54.6V14.7C54.6 15.257 54.3788 15.7911 53.985 16.1849C53.5911 16.5787 53.057 16.8 52.5 16.8H35.7C35.1431 16.8 34.6089 16.5787 34.2151 16.1849C33.8213 15.7911 33.6 15.257 33.6 14.7V8.4H29.4Z" fill="black"/>
</svg>
