<svg width="24" height="24" viewBox="0 0 24 24" fill="none" xmlns="http://www.w3.org/2000/svg">
<path d="M4 14.358H8C8.53043 14.358 9.03914 14.5687 9.41421 14.9438C9.78929 15.3188 10 15.8275 10 16.358V20.358C10 20.8884 9.78929 21.3971 9.41421 21.7722C9.03914 22.1473 8.53043 22.358 8 22.358H4C3.46957 22.358 2.96086 22.1473 2.58579 21.7722C2.21071 21.3971 2 20.8884 2 20.358V16.358C2 15.8275 2.21071 15.3188 2.58579 14.9438C2.96086 14.5687 3.46957 14.358 4 14.358V14.358ZM10 2.35797H14C14.5304 2.35797 15.0391 2.56868 15.4142 2.94376C15.7893 3.31883 16 3.82754 16 4.35797V8.35797C16 8.8884 15.7893 9.39711 15.4142 9.77219C15.0391 10.1473 14.5304 10.358 14 10.358H10C9.46957 10.358 8.96086 10.1473 8.58579 9.77219C8.21071 9.39711 8 8.8884 8 8.35797V4.35797C8 3.82754 8.21071 3.31883 8.58579 2.94376C8.96086 2.56868 9.46957 2.35797 10 2.35797V2.35797ZM16 14.358H20C20.5304 14.358 21.0391 14.5687 21.4142 14.9438C21.7893 15.3188 22 15.8275 22 16.358V20.358C22 20.8884 21.7893 21.3971 21.4142 21.7722C21.0391 22.1473 20.5304 22.358 20 22.358H16C15.4696 22.358 14.9609 22.1473 14.5858 21.7722C14.2107 21.3971 14 20.8884 14 20.358V16.358C14 15.8275 14.2107 15.3188 14.5858 14.9438C14.9609 14.5687 15.4696 14.358 16 14.358V14.358Z" fill="white"/>
<path d="M11 11.358V9.35797H13V13.358H8C7.73478 13.358 7.48043 13.4633 7.29289 13.6509C7.10536 13.8384 7 14.0928 7 14.358V15.293H5V14.358C5 13.5623 5.31607 12.7993 5.87868 12.2367C6.44129 11.674 7.20435 11.358 8 11.358H11Z" fill="white"/>
<path d="M12 13.358V11.358H16C16.7956 11.358 17.5587 11.674 18.1213 12.2367C18.6839 12.7993 19 13.5623 19 14.358V15.378H17V14.358C17 14.0928 16.8946 13.8384 16.7071 13.6509C16.5196 13.4633 16.2652 13.358 16 13.358H12Z" fill="white"/>
</svg>
